<svg width="61" height="40" viewBox="0 0 61 40" fill="none" xmlns="http://www.w3.org/2000/svg">
<path d="M40.5557 29.8333C40.5557 27.3443 42.5668 25.3333 45.0557 25.3333C47.5446 25.3333 49.5557 27.3443 49.5557 29.8333C49.5557 32.3222 47.5446 34.3333 45.0557 34.3333C42.5668 34.3333 40.5557 32.3222 40.5557 29.8333Z" stroke="#878787"/>
<path d="M8.6665 29.8333C8.6665 27.3443 10.6776 25.3333 13.1665 25.3333C15.6554 25.3333 17.6665 27.3443 17.6665 29.8333C17.6665 32.3222 15.6554 34.3333 13.1665 34.3333C10.6776 34.3333 8.6665 32.3222 8.6665 29.8333Z" stroke="#878787"/>
<path d="M57.1596 27.4217C54.9041 18.7105 40.6319 18.555 40.6319 18.555C40.6319 18.555 33.3985 10.6605 21.4208 13.6939C18.3485 14.4717 10.6096 17.7383 10.6096 17.7383L4.27076 18.555C4.27076 18.555 1.35409 25.4383 2.13187 26.2939C2.90965 27.1494 7.69298 29.3272 7.69298 29.3272H8.12076C8.12076 22.1793 18.0763 22.3236 18.0763 29.3272H40.1263C40.1263 23.4661 50.0819 23.0445 50.0819 29.3272H58.7152V28.4328L57.1596 27.4217ZM13.9541 18.1661C13.9541 18.1661 17.7263 16.0272 22.5874 14.8605L24.8819 18.1661H13.9541ZM34.7208 16.7272C32.7763 16.7661 32.3485 17.4661 32.6208 18.1272H25.193L22.8596 14.7828C24.5319 14.3939 26.3208 14.1605 28.1485 14.1605C32.5819 14.1605 35.8097 16.0272 37.3652 17.1939C36.6263 16.8828 35.7708 16.7272 34.7208 16.7272ZM52.6874 24.1161C52.6874 24.1161 50.7819 23.4939 48.8763 21.2383C48.8763 21.2383 51.6763 21.2383 54.4374 24.1161H52.6874ZM55.2152 27.4217C55.2152 27.4217 54.2819 26.6439 55.0596 24.9717C55.0596 24.9717 55.6819 25.3994 56.3041 27.4217H55.2152Z" fill="#F6F6F6"/>
<path d="M9 16H4C3.44772 16 3 15.5523 3 15V13.1765C3 12.5599 3.55259 12.0902 4.16113 12.1896L9.16113 13.0059C9.64482 13.0849 10 13.5027 10 13.9928V15C10 15.5523 9.55228 16 9 16ZM9 16V18M5 18V16" stroke="#878787"/>
<path d="M8.12076 29.3272H7.69298C7.69298 29.3272 2.90965 27.1494 2.13187 26.2939C1.35409 25.4383 4.27076 18.555 4.27076 18.555L10.6096 17.7383C10.6096 17.7383 18.3485 14.4717 21.4208 13.6939C33.3985 10.6605 40.6319 18.555 40.6319 18.555C40.6319 18.555 51.0642 18.6687 55.5 24.1455M18.8541 29.3272H38.9596M50.0819 29.3272H58.7152V28.4328L57.1596 27.4217C56.8325 26.1582 56.2525 25.0747 55.5 24.1455M55.5 24.1455C55.1667 24.2637 54.5 25 53.5 24.5" stroke="#878787"/>
</svg>
